<svg xmlns="http://www.w3.org/2000/svg" viewBox="0 0 100 100" width="100%" height="100%">
<defs>
<linearGradient id="navy" x1="0%" y1="0%" x2="0%" y2="100%">
<stop offset="0%" stop-color="#2A426B" />
<stop offset="100%" stop-color="#1A2E4A" />
</linearGradient>
<linearGradient id="teal" x1="0%" y1="0%" x2="100%" y2="100%">
<stop offset="0%" stop-color="#00D2C1" />
<stop offset="100%" stop-color="#00B8A9" />
</linearGradient>
</defs>


<path d="M 41 30
L 41 64
A 16 16 0 0 1 9 64
L 9 52
L 21 52
L 21 64
A 4 4 0 0 0 29 64
L 29 30
L 25 26
A 10 10 0 0 1 27 20
L 31 20
L 31 24
A 4 4 0 0 0 39 24
L 39 20
L 43 20
A 10 10 0 0 1 45 26
Z"
fill="url(#navy)" />

<path d="M 75 28
A 24 24 0 1 1 74.99 28
Z
M 75 38
L 79 42
L 79 38
L 83 38
L 83 46
L 87 50
L 83 50
L 83 62
L 67 62
L 67 50
L 63 50
Z"
fill="url(#teal)"
fill-rule="evenodd" />
</svg>